<?xml version="1.0" encoding="utf-8"?>
<!-- Generator: Adobe Illustrator 25.3.0, SVG Export Plug-In . SVG Version: 6.00 Build 0)  -->
<svg version="1.1" id="Layer_1" xmlns="http://www.w3.org/2000/svg" xmlns:xlink="http://www.w3.org/1999/xlink" x="0px" y="0px"
	 viewBox="0 0 165.9 1548.7" style="enable-background:new 0 0 165.9 1548.7;" xml:space="preserve">
<style type="text/css">
	.st0{fill:#E09DB7;}
	.st1{fill:#61AE7B;}
	.st2{fill:#508F91;}
</style>
<path class="st0" d="M115.3,643.8c-1.6,10.7-4.3,21.2-8,31.3c-3.5,10-7.7,19.3-12,28.5c-4.3,9.1-8.4,17.9-12.1,26.8
	c-3.7,8.6-6.7,17.6-8.9,26.7c-2.1,8.9-3.1,18.2-3,27.4c0.1,4.6,0.4,9.2,1.1,13.8c0.1,1.1,0.4,2.3,0.5,3.4l0.6,3.6
	c0.4,2.4,0.9,4.8,1.4,7.2c3.9,19.2,9.2,38.4,14.4,57.8s10.4,38.9,14.1,59.3c1.9,10.3,3.1,20.7,3.5,31.2c0.1,5.5-0.1,10.9-0.8,16.3
	c-0.7,5.7-2.2,11.2-4.4,16.4c-1.1,2.6-2.5,5.1-4,7.5c-1.4,2.3-2.9,4.5-4.4,6.6c-3,4.2-6.3,8.2-9.6,11.9
	c-6.6,7.5-13.6,14.4-20.1,21.4c-6.6,6.7-12.6,14-18.1,21.8c-5.2,7.5-9.1,16-11.6,25c-1.1,4.5-1.9,9.1-2.1,13.8
	c-0.1,2.3-0.2,4.7-0.1,7s0.2,4.7,0.5,7.2c0.4,4.9,1,9.7,1.9,14.5c0.8,4.8,1.8,9.5,3.1,14.2c2.5,9.4,6,18.4,10.3,27
	c4.4,8.7,9.3,17.1,14.6,25.2c5.3,8.2,10.8,16.4,16.2,24.6c5.4,8.2,10.8,16.6,16,25l1.9,3.2c0.6,1.1,1.3,2.1,1.9,3.3
	c1.2,2.2,2.4,4.5,3.5,6.9c2.1,4.7,3.9,9.5,5.4,14.5c2.8,9.9,4.5,20.1,5,30.4c0.5,10.2,0.3,20.4-0.7,30.6
	c-0.9,10.1-2.4,20.2-4.3,30.1c-3.7,19.9-8.7,39.3-13.5,58.8c-2.3,9.7-4.7,19.5-6.2,29.3c-1.5,9.9-1.4,19.9,0.2,29.8
	c1.7,9.9,4.8,19.4,9.2,28.3c4.3,8.9,9.9,17.1,16.4,24.3c-6.7-7.1-12.5-15.1-17-24c-4.6-8.8-8-18.4-9.9-28.3
	c-1.9-10-2.2-20.2-0.9-30.3c1.3-10.1,3.5-19.9,5.6-29.7c4.4-19.6,9-39.1,12.2-58.9c3.2-19.8,5.1-39.7,3.6-59.5
	c-0.7-9.8-2.5-19.5-5.4-28.9c-1.4-4.6-3.2-9.1-5.3-13.4c-1-2.1-2.2-4.3-3.4-6.3c-0.6-1-1.2-2-1.9-3l-2-3.1
	c-5.3-8.2-10.8-16.3-16.4-24.4s-11.3-16.1-16.8-24.3c-5.7-8.3-10.9-16.9-15.6-25.7c-2.4-4.5-4.6-9.1-6.5-13.9
	c-2-4.8-3.7-9.7-5.1-14.6c-1.5-5-2.7-10-3.7-15.1c-1-5.1-1.8-10.2-2.3-15.3c-1.4-10.7-0.9-21.5,1.4-32c1.2-5.3,3-10.4,5.1-15.3
	c2.2-4.8,4.7-9.5,7.5-13.9c5.6-8.5,11.9-16.4,18.8-23.8c6.6-7.3,13.3-14.3,19.4-21.6c3-3.6,5.9-7.3,8.5-11.1
	c1.3-1.9,2.5-3.8,3.7-5.8c1.1-1.8,2.1-3.7,2.9-5.7c3.1-7.7,3.8-17.1,3.4-26.5c-0.6-9.6-1.9-19.2-3.9-28.6
	c-3.9-19.2-9.5-38.3-15-57.5s-11.4-38.5-15.9-58.5c-0.6-2.5-1.1-5-1.6-7.5l-0.8-3.8c-0.2-1.3-0.5-2.7-0.7-4
	c-2.7-16.2-2.2-32.8,1.2-48.8c2.3-10.4,5.4-20.6,9.3-30.4c3.8-9.7,7.9-18.8,11.9-27.8c3.9-9,7.7-17.9,10.6-26.9
	c3-8.7,5.1-17.8,6.3-27L115.3,643.8z"/>
<path class="st1" d="M72.9,437.9c1.1,11,3.3,21.8,6.7,32.3c3.6,10.9,7.9,21.6,12.7,32l7.5,16.4c2.5,5.6,5,11.3,7.4,17.2
	c5,12.1,8.8,24.7,11.2,37.6c1.2,6.6,2,13.3,2.4,20l0.2,5c0,1.7,0,3.3,0,5c0.1,3.4-0.2,6.7-0.3,10c-0.1,1.7-0.3,3.3-0.4,5
	s-0.3,3.3-0.5,4.9l-0.7,4.9l-0.3,2.4l-0.4,2.3c-0.5,3.1-1,6.2-1.6,9.2c-0.6,3.1-1.1,6.1-1.7,9.2c-4.8,24.3-10.5,48.1-16.1,71.7
	s-10.9,47.1-14.6,70.6c-1.9,11.6-3.1,23.2-3.5,35c-0.3,11.5,0.5,22.8,3.7,32.5l1.3,3.5l1.7,3.8c1.2,2.5,2.5,5,3.9,7.5
	c2.7,4.9,5.8,9.8,9,14.5c6.5,9.6,13.7,19,20.6,29c7,10,13.7,20.6,19,32.3c5.4,11.7,9,24.3,10.6,37.3c0.2,1.6,0.4,3.2,0.5,4.9
	c0.1,1.6,0.3,3.2,0.4,4.9c0.1,3.2,0.3,6.4,0.1,9.7s-0.2,6.4-0.4,9.7c-0.2,3.2-0.6,6.2-0.9,9.4l-0.5,4.7c-0.2,1.6-0.4,3.1-0.7,4.7
	c-0.5,3.1-0.9,6.2-1.4,9.3l-1.8,9.2c-0.3,1.5-0.7,3.1-1.1,4.6l-1.1,4.6c-3.2,12.1-7.3,23.9-12.3,35.3c-4.9,11.4-10.6,22.1-16.4,32.7
	c-5.8,10.6-11.7,21-17.5,31.5c-2.9,5.2-5.7,10.5-8.6,15.8l-4.2,7.9l-2.1,4l-1,2l-0.9,2c-5,10.5-8.8,21.7-11.2,33.2
	c-2.4,11.7-3.8,23.6-4.2,35.6c-1,24.1,1,48.3,4.1,72.4c3.1,24.1,7.6,48,11.7,72.1c1,6,2,12,2.9,18.1s1.8,12.1,2.4,18.3
	c1.2,12.3,0.9,24.7-0.9,36.8c-2.8,18.2-8.7,35.7-17.5,51.6c-2.9,5.3-6.1,10.3-9.8,15c3.5-4.8,6.7-9.9,9.4-15.2
	c2.8-5.3,5.2-10.8,7.4-16.5c4.3-11.3,7.2-23.1,8.7-35.1c1.5-12,1.5-24.2,0-36.2c-0.7-6-1.7-12-2.8-18c-1.1-6-2.2-12-3.4-17.9
	c-4.7-23.9-9.8-47.7-13.6-72c-3.8-24.2-6.4-48.7-6-73.5c0.2-12.5,1.3-24.9,3.5-37.1c2.3-12.4,6-24.5,11.1-35.9l1-2.1l1-2l2-4.1
	l4-8.1c2.7-5.4,5.4-10.8,8.2-16.1c5.5-10.7,11.2-21.3,16.6-32s10.7-21.3,15.2-32.2c4.5-10.8,8-22.1,10.7-33.5l1-4.3
	c0.3-1.4,0.7-2.9,0.9-4.3l1.5-8.7c0.5-2.9,0.8-5.9,1.1-8.8c0.2-1.5,0.4-2.9,0.5-4.4l0.3-4.4c0.2-3,0.5-6,0.7-8.9s0.3-5.8,0.2-8.7
	s-0.2-5.7-0.3-8.6c-0.1-1.4-0.3-2.8-0.4-4.3c-0.1-1.5-0.3-2.8-0.6-4.2c-1.7-11.3-5.1-22.1-10.1-32.2c-4.9-10.2-11.2-19.7-18.1-29
	s-14.4-18.6-21.6-28.6c-3.6-5-7-10.2-10.3-15.7c-1.6-2.7-3.1-5.6-4.6-8.4c-0.7-1.5-1.4-2.9-2.1-4.4l-2-4.9c-2.2-6.5-3.8-13.2-4.6-20
	l-0.6-5l-0.3-4.9c-0.1-1.7-0.1-3.3-0.2-4.9c0-1.6-0.1-3.2-0.1-4.9c0.2-12.7,1.1-25.4,2.8-37.9c3.3-24.8,8.2-48.9,13.2-72.8
	c4.9-23.9,10.1-47.6,14.1-71.2c0.5-3,1-5.9,1.4-8.8c0.5-2.9,0.9-5.9,1.3-8.8l0.3-2.2l0.2-2.1l0.5-4.2c0.2-1.4,0.2-2.8,0.3-4.2
	c0.1-1.4,0.2-2.8,0.2-4.2c0.5-11-0.5-22.1-2.7-32.9c-2.4-10.9-5.9-21.6-10.4-31.7c-2.3-5.2-4.7-10.5-7.3-15.8l-7.9-16.2
	c-5.7-11.3-10.6-23-14.9-35c-4.4-12.5-0.1-26.5-1.7-39.7L72.9,437.9z"/>
<path class="st2" d="M82.9,0c1,14.9-18.1,71.7-14.7,86.2c3.6,15,1.3,28.7,6.3,43.2c5,15,10.4,30.3,15.1,46.5
	c2.4,8,4.5,16.3,6.3,24.6c1,4.2,1.7,8.4,2.5,12.6s1.4,8.5,1.9,12.8c2.2,17.1,2.8,34.4,1.9,51.6c-0.1,2.1-0.3,4.3-0.4,6.4
	c-0.1,2.1-0.3,4.3-0.5,6.4l-0.7,6.3l-0.3,3.2l-0.4,3.1c-1,8.1-2.1,16.2-3.3,24.3c-4.8,32.3-10.6,64-16.2,95.6s-11.1,63.1-15,94.5
	c-1.9,15.7-3.5,31.3-4,46.8l-0.2,5.8v5.8v3l0.1,2.8c0.1,1.9,0.1,3.8,0.2,5.7c0.3,7.4,1.1,14.7,2.4,21.9l0.5,2.6
	c0.2,0.9,0.3,1.8,0.6,2.6c0.5,1.7,0.9,3.3,1.4,5l1.8,5.3l1.9,5.3c2.7,7,5.8,14,9.2,20.9c6.7,13.9,14.6,27.6,22,42.1
	s14.4,29.7,19.5,45.8c5.1,16.1,8.4,32.8,9.7,49.7c0.2,2.1,0.3,4.2,0.4,6.3l0.2,3.2c0,1.1,0.1,2.1,0.1,3.2l0.1,6.3l-0.1,6.3
	c0,2.1-0.1,4.2-0.2,6.3c-0.1,2.1-0.2,4.2-0.3,6.3l-1,12.2c-1.3,16.4-3.6,32.7-6.7,48.8c-3.2,16.1-7.4,32.1-12.5,47.6
	c-5.1,15.5-11,30.6-17.1,45.5L75,1024.6c-3,7.4-6,14.8-8.9,22.2s-5.9,14.9-8.3,22.1c-0.7,1.8-1.2,3.7-1.8,5.5l-1.7,5.6l-1.4,5.7
	c-0.5,1.9-1,3.8-1.4,5.7l-1.2,5.7c-0.2,1-0.4,1.9-0.6,2.9l-0.5,2.9l-1,5.8c-0.4,1.9-0.6,3.9-0.9,5.9c-2.2,15.7-3.5,31.6-3.8,47.4
	c-0.9,31.9,1.1,63.9,4.1,95.8s7.3,63.8,11.2,95.8c1,8,1.9,16,2.8,24s1.7,16,2.2,24.2l0.6,12.1v12.2v3l-0.2,3l-0.4,6.1
	c-0.1,2-0.2,4-0.4,6.1l-0.7,6c-1.7,16.1-4.9,31.9-9.4,47.4c-0.6,1.9-1.1,3.9-1.8,5.8l-1.9,5.7c-0.6,1.9-1.3,3.8-2.1,5.7
	s-1.4,3.8-2.2,5.6c-3,7.4-6.4,14.7-10.4,21.6c3.8-7,7-14.3,9.8-21.8c0.7-1.8,1.3-3.8,2-5.6s1.3-3.8,1.9-5.7l1.8-5.7
	c0.6-1.9,1.1-3.9,1.6-5.8c4.1-15.5,6.8-31.3,8.1-47.3l0.5-6c0.1-2,0.1-4,0.2-6l0.2-6l0.1-3l-0.1-3l-0.3-12l-0.9-11.9
	c-0.6-8-1.7-15.9-2.8-23.9s-2.2-15.9-3.4-23.8c-4.8-31.8-9.9-63.6-13.7-95.6c-3.9-32-6.6-64.4-6.6-96.9c0-16.3,0.9-32.6,2.7-48.9
	c0.2-2,0.4-4.1,0.8-6.1l0.9-6.1l0.4-3c0.2-1.1,0.4-2,0.6-3l1.1-6.1c0.3-2,0.9-4,1.3-6l1.4-6l1.6-6c0.6-2,1-4,1.7-6
	c2.5-8,5.3-15.4,8-23c2.7-7.6,5.6-15.1,8.4-22.6l17.1-44.8c5.6-14.9,11-29.8,15.5-44.8c4.5-15,8.1-30.3,10.7-45.7
	c2.6-15.5,4.3-31.2,5.1-47l0.6-11.8c0.1-2,0.1-3.9,0.1-5.8s0.1-3.9,0-5.8l-0.1-5.8l-0.3-5.8c0-1-0.1-1.9-0.1-2.9L111,796
	c-0.2-1.9-0.3-3.8-0.5-5.7c-1.6-15.2-4.9-30.1-9.9-44.4c-5-14.3-11.6-28-19.1-41.7c-7.5-13.7-15.7-27.3-23.3-41.9
	c-3.8-7.3-7.4-14.8-10.6-22.7l-2.4-5.9l-2.2-6c-0.7-2.1-1.4-4.4-2-6.5c-0.4-1.1-0.6-2.2-0.9-3.3l-0.8-3.3
	c-3.8-17.5-4.4-34.5-4.3-51.2c0.1-16.7,1.4-33.2,2.9-49.5c3.2-32.6,8-64.6,12.8-96.5s9.7-63.5,13.6-95c1-7.9,1.8-15.7,2.6-23.6
	l0.3-2.9l0.2-2.8l0.4-5.7c0.1-1.9,0.2-3.8,0.3-5.7s0.2-3.8,0.2-5.7c0.4-15-0.5-30-2.8-44.8c-0.5-3.7-1.3-7.4-1.9-11s-1.5-7.4-2.5-11
	c-1.8-7.3-3.9-14.5-6.2-21.8c-4.6-14.6-10.2-29.3-15.8-44.5c-5.8-15.6-3.3-31.4-7.5-47.5C27.4,78.8,36.9,17.2,35.3,0H82.9z"/>
</svg>
